<?xml version="1.0" encoding="utf-8"?>
<!-- Generator: Adobe Illustrator 16.0.5, SVG Export Plug-In . SVG Version: 6.00 Build 0)  -->
<!DOCTYPE svg PUBLIC "-//W3C//DTD SVG 1.1//EN" "http://www.w3.org/Graphics/SVG/1.1/DTD/svg11.dtd">
<svg version="1.1" id="Layer_1" xmlns="http://www.w3.org/2000/svg" xmlns:xlink="http://www.w3.org/1999/xlink" x="0px" y="0px"
	 width="100px" height="10.4px" viewBox="0 0 100 10.4" enable-background="new 0 0 100 10.4" xml:space="preserve">
<path fill-rule="evenodd" clip-rule="evenodd" fill="#DBDBDB" d="M0,0h100v10.4H0V0z"/>
<g>
	<path opacity="0.25" fill-rule="evenodd" clip-rule="evenodd" d="M14.1,4c0.7,0,1.3,0.6,1.3,1.3s-0.6,1.3-1.3,1.3
		c-0.7,0-1.3-0.6-1.3-1.3S13.4,4,14.1,4z"/>
	<path opacity="0.25" fill-rule="evenodd" clip-rule="evenodd" d="M9.6,4c0.7,0,1.3,0.6,1.3,1.3s-0.6,1.3-1.3,1.3
		C8.9,6.6,8.3,6,8.3,5.3S8.9,4,9.6,4z"/>
	<path opacity="0.25" fill-rule="evenodd" clip-rule="evenodd" d="M5.4,4c0.7,0,1.3,0.6,1.3,1.3S6.1,6.6,5.4,6.6S4.1,6,4.1,5.3
		S4.7,4,5.4,4z"/>
	<path opacity="0.25" fill-rule="evenodd" clip-rule="evenodd" d="M19.6,3h75.5c0.4,0,0.8,0.4,0.8,0.8v2.9c0,0.4-0.4,0.8-0.8,0.8
		H19.6c-0.4,0-0.8-0.4-0.8-0.8V3.7C18.8,3.3,19.2,3,19.6,3z"/>
</g>
</svg>
