<?xml version="1.0" encoding="utf-8"?>
<!-- Generator: Adobe Illustrator 16.0.5, SVG Export Plug-In . SVG Version: 6.00 Build 0)  -->
<!DOCTYPE svg PUBLIC "-//W3C//DTD SVG 1.1//EN" "http://www.w3.org/Graphics/SVG/1.1/DTD/svg11.dtd">
<svg version="1.1" id="Layer_1" xmlns="http://www.w3.org/2000/svg" xmlns:xlink="http://www.w3.org/1999/xlink" x="0px" y="0px"
	 width="112px" height="5px" viewBox="0 0 112 5" enable-background="new 0 0 112 5" xml:space="preserve">
<path fill-rule="evenodd" clip-rule="evenodd" fill="#1F2D5F" d="M101.5,0h8c1.4,0,2.5,1.1,2.5,2.5S110.9,5,109.5,5h-8
	C100.1,5,99,3.9,99,2.5S100.1,0,101.5,0z"/>
<path fill-rule="evenodd" clip-rule="evenodd" fill="#1F2D5F" d="M76.5,0h8C85.9,0,87,1.1,87,2.5S85.9,5,84.5,5h-8
	C75.1,5,74,3.9,74,2.5S75.1,0,76.5,0z"/>
<path fill-rule="evenodd" clip-rule="evenodd" fill="#1F2D5F" d="M52.5,0h8C61.9,0,63,1.1,63,2.5S61.9,5,60.5,5h-8
	C51.1,5,50,3.9,50,2.5S51.1,0,52.5,0z"/>
<path fill-rule="evenodd" clip-rule="evenodd" fill="#1F2D5F" d="M27.5,0h8C36.9,0,38,1.1,38,2.5S36.9,5,35.5,5h-8
	C26.1,5,25,3.9,25,2.5S26.1,0,27.5,0z"/>
<path fill-rule="evenodd" clip-rule="evenodd" fill="#1F2D5F" d="M2.5,0h8C11.9,0,13,1.1,13,2.5S11.9,5,10.5,5h-8C1.1,5,0,3.9,0,2.5
	S1.1,0,2.5,0z"/>
</svg>
